<svg xmlns="http://www.w3.org/2000/svg" viewBox="0 0 320 64" fill="none">
  <!-- Dark modern background container with subtle border -->
  <rect width="320" height="64" rx="10" fill="#0E1626" stroke="rgba(118, 185, 0, 0.4)" stroke-width="1.5"/>
  
  <!-- NVIDIA Green Eye / Swirl Symbol -->
  <g transform="translate(14, 11) scale(0.9)">
    <path d="M23.5 0C10.5 0 0 10.5 0 23.5c0 8.3 4.3 15.6 10.8 19.8-.4-2.1-.6-4.3-.6-6.6 0-10.4 8.5-18.9 18.9-18.9 5.2 0 9.9 2.1 13.3 5.5l5.5-5.5C42.8 13.1 33.7 0 23.5 0z" fill="#76B900"/>
    <path d="M23.5 8.8c-8.1 0-14.7 6.6-14.7 14.7 0 3.7 1.4 7.1 3.7 9.7-.3-1.3-.4-2.7-.4-4.1 0-6.3 5.1-11.4 11.4-11.4 3.2 0 6 1.3 8.1 3.3l4.3-4.3c-3.1-4.8-8.5-7.9-12.4-7.9z" fill="#FFFFFF"/>
    <circle cx="23.5" cy="23.5" r="4.2" fill="#76B900"/>
    <path d="M38.8 28.5c0 8.4-6.8 15.3-15.3 15.3-4.2 0-8-1.7-10.8-4.5l-4.5 4.5C11.9 47.1 17.4 49 23.5 49c14.1 0 25.5-11.4 25.5-25.5 0-3.3-.6-6.4-1.8-9.3l-5.6 5.6c1.4 2.6 2.2 5.5 2.2 8.7z" fill="#76B900" opacity="0.85"/>
  </g>

  <!-- NVIDIA and Inception text -->
  <g transform="translate(68, 14)">
    <!-- NVIDIA wordmark -->
    <text x="0" y="16" fill="#FFFFFF" font-family="'Plus Jakarta Sans', -apple-system, BlinkMacSystemFont, sans-serif" font-size="14" font-weight="800" letter-spacing="1.5">NVIDIA</text>
    <rect x="66" y="5" width="1" height="13" fill="rgba(255,255,255,0.2)"/>
    <!-- INCEPTION text -->
    <text x="75" y="16" fill="#76B900" font-family="'Plus Jakarta Sans', -apple-system, BlinkMacSystemFont, sans-serif" font-size="13" font-weight="700" letter-spacing="1">INCEPTION</text>
    <!-- Subtitle -->
    <text x="0" y="31" fill="#94A3B8" font-family="'Plus Jakarta Sans', -apple-system, BlinkMacSystemFont, sans-serif" font-size="9" font-weight="600" letter-spacing="0.8">PROGRAM MEMBER</text>
  </g>
</svg>
